<mxfile host="app.diagrams.net" agent="Mozilla/5.0 (Windows NT 10.0; Win64; x64) AppleWebKit/537.36 (KHTML, like Gecko) Chrome/132.0.0.0 YaBrowser/25.2.0.0 Safari/537.36" version="26.2.6">
  <diagram name="Страница — 1" id="-M0b2LAnIcLKDNaMOBhy">
    <mxGraphModel dx="1320" dy="1698" grid="1" gridSize="10" guides="1" tooltips="1" connect="1" arrows="1" fold="1" page="1" pageScale="1" pageWidth="827" pageHeight="1169" math="0" shadow="0">
      <root>
        <mxCell id="0" />
        <mxCell id="1" parent="0" />
        <mxCell id="iEGR4E654-4deKAS1NUU-21" value="" style="edgeStyle=orthogonalEdgeStyle;rounded=0;orthogonalLoop=1;jettySize=auto;html=1;" parent="1" source="iEGR4E654-4deKAS1NUU-1" target="iEGR4E654-4deKAS1NUU-17" edge="1">
          <mxGeometry relative="1" as="geometry" />
        </mxCell>
        <mxCell id="iEGR4E654-4deKAS1NUU-1" value="Администратор" style="shape=umlActor;verticalLabelPosition=bottom;verticalAlign=top;html=1;outlineConnect=0;" parent="1" vertex="1">
          <mxGeometry x="50" y="270" width="30" height="60" as="geometry" />
        </mxCell>
        <mxCell id="iEGR4E654-4deKAS1NUU-9" value="" style="edgeStyle=orthogonalEdgeStyle;rounded=0;orthogonalLoop=1;jettySize=auto;html=1;" parent="1" source="iEGR4E654-4deKAS1NUU-2" target="iEGR4E654-4deKAS1NUU-7" edge="1">
          <mxGeometry relative="1" as="geometry" />
        </mxCell>
        <mxCell id="iEGR4E654-4deKAS1NUU-2" value="Посетитель" style="shape=umlActor;verticalLabelPosition=bottom;verticalAlign=top;html=1;outlineConnect=0;" parent="1" vertex="1">
          <mxGeometry x="60" y="30" width="30" height="60" as="geometry" />
        </mxCell>
        <mxCell id="iEGR4E654-4deKAS1NUU-3" value="Менеджер" style="shape=umlActor;verticalLabelPosition=bottom;verticalAlign=top;html=1;outlineConnect=0;" parent="1" vertex="1">
          <mxGeometry x="470" y="170" width="30" height="60" as="geometry" />
        </mxCell>
        <mxCell id="iEGR4E654-4deKAS1NUU-4" value="Владелец" style="shape=umlActor;verticalLabelPosition=bottom;verticalAlign=top;html=1;outlineConnect=0;" parent="1" vertex="1">
          <mxGeometry x="190" y="410" width="30" height="60" as="geometry" />
        </mxCell>
        <mxCell id="iEGR4E654-4deKAS1NUU-7" value="Просмотр истории заказов" style="ellipse;whiteSpace=wrap;html=1;" parent="1" vertex="1">
          <mxGeometry x="200" y="35" width="80" height="50" as="geometry" />
        </mxCell>
        <mxCell id="iEGR4E654-4deKAS1NUU-14" value="Просмотр меню&amp;nbsp;" style="ellipse;whiteSpace=wrap;html=1;" parent="1" vertex="1">
          <mxGeometry x="200" y="100" width="80" height="50" as="geometry" />
        </mxCell>
        <mxCell id="iEGR4E654-4deKAS1NUU-15" value="" style="endArrow=classic;html=1;rounded=0;entryX=-0.003;entryY=0.2;entryDx=0;entryDy=0;entryPerimeter=0;" parent="1" target="iEGR4E654-4deKAS1NUU-14" edge="1">
          <mxGeometry width="50" height="50" relative="1" as="geometry">
            <mxPoint x="100" y="70" as="sourcePoint" />
            <mxPoint x="170" y="70" as="targetPoint" />
          </mxGeometry>
        </mxCell>
        <mxCell id="iEGR4E654-4deKAS1NUU-17" value="Просмотр отзывов клиентов" style="ellipse;whiteSpace=wrap;html=1;" parent="1" vertex="1">
          <mxGeometry x="290" y="260" width="130" height="80" as="geometry" />
        </mxCell>
        <mxCell id="iEGR4E654-4deKAS1NUU-19" value="" style="endArrow=classic;html=1;rounded=0;entryX=0.5;entryY=0;entryDx=0;entryDy=0;" parent="1" target="iEGR4E654-4deKAS1NUU-17" edge="1">
          <mxGeometry width="50" height="50" relative="1" as="geometry">
            <mxPoint x="100" y="80" as="sourcePoint" />
            <mxPoint x="160" y="140" as="targetPoint" />
          </mxGeometry>
        </mxCell>
        <mxCell id="iEGR4E654-4deKAS1NUU-25" value="Просмотр отчетов о продажах" style="ellipse;whiteSpace=wrap;html=1;" parent="1" vertex="1">
          <mxGeometry x="560" y="230" width="100" height="60" as="geometry" />
        </mxCell>
        <mxCell id="iEGR4E654-4deKAS1NUU-26" value="" style="endArrow=classic;html=1;rounded=0;entryX=0.5;entryY=0;entryDx=0;entryDy=0;" parent="1" source="iEGR4E654-4deKAS1NUU-3" target="iEGR4E654-4deKAS1NUU-25" edge="1">
          <mxGeometry width="50" height="50" relative="1" as="geometry">
            <mxPoint x="510" y="60" as="sourcePoint" />
            <mxPoint x="480" y="120" as="targetPoint" />
          </mxGeometry>
        </mxCell>
        <mxCell id="iEGR4E654-4deKAS1NUU-40" value="написание отзывов" style="ellipse;whiteSpace=wrap;html=1;" parent="1" vertex="1">
          <mxGeometry x="120" y="160" width="80" height="50" as="geometry" />
        </mxCell>
        <mxCell id="iEGR4E654-4deKAS1NUU-41" value="" style="endArrow=classic;html=1;rounded=0;entryX=0.5;entryY=0;entryDx=0;entryDy=0;" parent="1" target="iEGR4E654-4deKAS1NUU-40" edge="1">
          <mxGeometry width="50" height="50" relative="1" as="geometry">
            <mxPoint x="100" y="90" as="sourcePoint" />
            <mxPoint x="295" y="270" as="targetPoint" />
          </mxGeometry>
        </mxCell>
        <mxCell id="iEGR4E654-4deKAS1NUU-43" value="Редактирование меню" style="ellipse;whiteSpace=wrap;html=1;" parent="1" vertex="1">
          <mxGeometry x="300" y="360" width="110" height="50" as="geometry" />
        </mxCell>
        <mxCell id="iEGR4E654-4deKAS1NUU-44" value="" style="endArrow=classic;html=1;rounded=0;entryX=0.019;entryY=0.387;entryDx=0;entryDy=0;entryPerimeter=0;" parent="1" target="iEGR4E654-4deKAS1NUU-43" edge="1">
          <mxGeometry width="50" height="50" relative="1" as="geometry">
            <mxPoint x="90" y="310" as="sourcePoint" />
            <mxPoint x="285" y="490" as="targetPoint" />
          </mxGeometry>
        </mxCell>
        <mxCell id="iEGR4E654-4deKAS1NUU-48" value="Просмотр отчетов о бронированиях" style="ellipse;whiteSpace=wrap;html=1;" parent="1" vertex="1">
          <mxGeometry x="350" y="440" width="130" height="60" as="geometry" />
        </mxCell>
        <mxCell id="iEGR4E654-4deKAS1NUU-49" value="" style="endArrow=classic;html=1;rounded=0;entryX=0;entryY=0;entryDx=0;entryDy=0;" parent="1" target="iEGR4E654-4deKAS1NUU-48" edge="1">
          <mxGeometry width="50" height="50" relative="1" as="geometry">
            <mxPoint x="90" y="320" as="sourcePoint" />
            <mxPoint x="376" y="389" as="targetPoint" />
          </mxGeometry>
        </mxCell>
        <mxCell id="iEGR4E654-4deKAS1NUU-52" value="" style="endArrow=classic;html=1;rounded=0;entryX=0.619;entryY=-0.089;entryDx=0;entryDy=0;entryPerimeter=0;" parent="1" source="iEGR4E654-4deKAS1NUU-3" target="iEGR4E654-4deKAS1NUU-48" edge="1">
          <mxGeometry width="50" height="50" relative="1" as="geometry">
            <mxPoint x="530" y="240" as="sourcePoint" />
            <mxPoint x="360" y="400" as="targetPoint" />
          </mxGeometry>
        </mxCell>
        <mxCell id="iEGR4E654-4deKAS1NUU-53" value="" style="endArrow=classic;html=1;rounded=0;entryX=1;entryY=0.5;entryDx=0;entryDy=0;exitX=0;exitY=0.3333333333333333;exitDx=0;exitDy=0;exitPerimeter=0;" parent="1" source="iEGR4E654-4deKAS1NUU-3" target="iEGR4E654-4deKAS1NUU-7" edge="1">
          <mxGeometry width="50" height="50" relative="1" as="geometry">
            <mxPoint x="510" y="180" as="sourcePoint" />
            <mxPoint x="215" y="-70" as="targetPoint" />
          </mxGeometry>
        </mxCell>
        <mxCell id="iEGR4E654-4deKAS1NUU-55" value="" style="endArrow=classic;html=1;rounded=0;exitX=1;exitY=0.3333333333333333;exitDx=0;exitDy=0;exitPerimeter=0;entryX=-0.006;entryY=0.607;entryDx=0;entryDy=0;entryPerimeter=0;" parent="1" source="iEGR4E654-4deKAS1NUU-3" target="iEGR4E654-4deKAS1NUU-56" edge="1">
          <mxGeometry width="50" height="50" relative="1" as="geometry">
            <mxPoint x="570" y="180" as="sourcePoint" />
            <mxPoint x="600" y="120" as="targetPoint" />
          </mxGeometry>
        </mxCell>
        <mxCell id="iEGR4E654-4deKAS1NUU-56" value="Получение уведомлений о низком запасе продуктов" style="ellipse;whiteSpace=wrap;html=1;" parent="1" vertex="1">
          <mxGeometry x="550" y="60" width="120" height="65" as="geometry" />
        </mxCell>
        <mxCell id="eMJAFZZCMxJjT7WGvLzR-6" value="Получение уведомлений о критических ситуациях" style="ellipse;whiteSpace=wrap;html=1;" parent="1" vertex="1">
          <mxGeometry x="10" y="450" width="150" height="70" as="geometry" />
        </mxCell>
        <mxCell id="eMJAFZZCMxJjT7WGvLzR-22" value="Получение уведомлений о специальных предложениях" style="ellipse;whiteSpace=wrap;html=1;" parent="1" vertex="1">
          <mxGeometry y="150" width="110" height="80" as="geometry" />
        </mxCell>
        <mxCell id="eMJAFZZCMxJjT7WGvLzR-23" value="" style="endArrow=classic;html=1;rounded=0;entryX=0.5;entryY=0;entryDx=0;entryDy=0;" parent="1" source="iEGR4E654-4deKAS1NUU-2" target="eMJAFZZCMxJjT7WGvLzR-22" edge="1">
          <mxGeometry width="50" height="50" relative="1" as="geometry">
            <mxPoint x="60" y="120" as="sourcePoint" />
            <mxPoint x="205" y="305" as="targetPoint" />
          </mxGeometry>
        </mxCell>
        <mxCell id="eMJAFZZCMxJjT7WGvLzR-24" value="Проведение опросов среди клиентов" style="ellipse;whiteSpace=wrap;html=1;" parent="1" vertex="1">
          <mxGeometry x="580" y="140" width="100" height="60" as="geometry" />
        </mxCell>
        <mxCell id="eMJAFZZCMxJjT7WGvLzR-29" value="" style="endArrow=classic;html=1;rounded=0;exitX=0.75;exitY=0.1;exitDx=0;exitDy=0;exitPerimeter=0;entryX=0;entryY=1;entryDx=0;entryDy=0;" parent="1" source="iEGR4E654-4deKAS1NUU-4" target="iEGR4E654-4deKAS1NUU-17" edge="1">
          <mxGeometry width="50" height="50" relative="1" as="geometry">
            <mxPoint x="240" y="400" as="sourcePoint" />
            <mxPoint x="290" y="350" as="targetPoint" />
          </mxGeometry>
        </mxCell>
        <mxCell id="eMJAFZZCMxJjT7WGvLzR-30" value="" style="endArrow=classic;html=1;rounded=0;entryX=0.962;entryY=0.354;entryDx=0;entryDy=0;entryPerimeter=0;" parent="1" source="iEGR4E654-4deKAS1NUU-3" target="iEGR4E654-4deKAS1NUU-17" edge="1">
          <mxGeometry width="50" height="50" relative="1" as="geometry">
            <mxPoint x="240" y="400" as="sourcePoint" />
            <mxPoint x="290" y="350" as="targetPoint" />
          </mxGeometry>
        </mxCell>
        <mxCell id="EPMtgW0mv4G4jacI6eEs-3" value="" style="endArrow=classic;html=1;rounded=0;entryX=0.308;entryY=0.092;entryDx=0;entryDy=0;entryPerimeter=0;" parent="1" source="iEGR4E654-4deKAS1NUU-4" target="eMJAFZZCMxJjT7WGvLzR-6" edge="1">
          <mxGeometry width="50" height="50" relative="1" as="geometry">
            <mxPoint x="70" y="500" as="sourcePoint" />
            <mxPoint x="80" y="450" as="targetPoint" />
          </mxGeometry>
        </mxCell>
        <mxCell id="EPMtgW0mv4G4jacI6eEs-5" value="" style="endArrow=classic;html=1;rounded=0;entryX=0;entryY=0.5;entryDx=0;entryDy=0;" parent="1" source="iEGR4E654-4deKAS1NUU-3" target="eMJAFZZCMxJjT7WGvLzR-24" edge="1">
          <mxGeometry width="50" height="50" relative="1" as="geometry">
            <mxPoint x="620" y="220" as="sourcePoint" />
            <mxPoint x="600" y="190" as="targetPoint" />
          </mxGeometry>
        </mxCell>
        <mxCell id="5doBLBQJc8CI3gEgxaub-4" value="подтверждение бронироваия столика" style="ellipse;whiteSpace=wrap;html=1;" vertex="1" parent="1">
          <mxGeometry x="125" y="230" width="115" height="50" as="geometry" />
        </mxCell>
        <mxCell id="5doBLBQJc8CI3gEgxaub-6" value="" style="endArrow=classic;html=1;rounded=0;entryX=0.018;entryY=0.704;entryDx=0;entryDy=0;entryPerimeter=0;exitX=0.5;exitY=0.5;exitDx=0;exitDy=0;exitPerimeter=0;" edge="1" parent="1" source="iEGR4E654-4deKAS1NUU-1" target="5doBLBQJc8CI3gEgxaub-4">
          <mxGeometry width="50" height="50" relative="1" as="geometry">
            <mxPoint x="80" y="290" as="sourcePoint" />
            <mxPoint x="130" y="240" as="targetPoint" />
          </mxGeometry>
        </mxCell>
        <mxCell id="5doBLBQJc8CI3gEgxaub-8" value="" style="endArrow=classic;html=1;rounded=0;" edge="1" parent="1" source="iEGR4E654-4deKAS1NUU-2" target="5doBLBQJc8CI3gEgxaub-9">
          <mxGeometry width="50" height="50" relative="1" as="geometry">
            <mxPoint x="90" y="50" as="sourcePoint" />
            <mxPoint x="170" y="20" as="targetPoint" />
          </mxGeometry>
        </mxCell>
        <mxCell id="5doBLBQJc8CI3gEgxaub-9" value="осуществление бронирования" style="ellipse;whiteSpace=wrap;html=1;" vertex="1" parent="1">
          <mxGeometry x="110" y="-30" width="100" height="50" as="geometry" />
        </mxCell>
      </root>
    </mxGraphModel>
  </diagram>
</mxfile>
